{"title":"The.Captive.2014.DVDRIP.H264.AAC.5.1ch.MP4.Raven","uid":10981489,"size":644207177,"categoryP":"video","categoryS":"movies","magnet":"?xt=urn:btih:8675e5ffc40361b97b562bdba6f8d868c81bf143&amp;dn=The.Captive.2014.DVDRIP.H264.AAC.5.1ch.MP4.Raven&amp;tr=udp%3A%2F%2Ftracker.openbittorrent.com%3A80&amp;tr=udp%3A%2F%2Fopen.demonii.com%3A1337&amp;tr=udp%3A%2F%2Ftracker.coppersurfer.tk%3A6969&amp;tr=udp%3A%2F%2Fexodus.desync.com%3A6969","seeders":1,"leechers":0,"uploader":"Raven1969","files":-1,"time":1409871175,"description":"The.Captive.2014.DVDRIP.H264.AAC.5.1ch.MP4.Raven.\n\n\n\n\nScreen images:\n\n\n &lt;a href=&quot;\nhttp://i.imgur.com/hVEas1w.png&quot; rel=&quot;nofollow&quot; target=&quot;_NEW&quot;&gt;\nhttp://i.imgur.com/hVEas1w.png&lt;/a&gt;\n\n\n &lt;a href=&quot;\nhttp://i.imgur.com/XA4BcF4.png&quot; rel=&quot;nofollow&quot; target=&quot;_NEW&quot;&gt;\nhttp://i.imgur.com/XA4BcF4.png&lt;/a&gt;\n\n\n &lt;a href=&quot;\nhttp://i.imgur.com/vGndJ5g.png&quot; rel=&quot;nofollow&quot; target=&quot;_NEW&quot;&gt;\nhttp://i.imgur.com/vGndJ5g.png&lt;/a&gt;\n\n\n &lt;a href=&quot;\nhttp://i.imgur.com/d7PqXt4.png&quot; rel=&quot;nofollow&quot; target=&quot;_NEW&quot;&gt;\nhttp://i.imgur.com/d7PqXt4.png&lt;/a&gt;\n\n\n &lt;a href=&quot;\nhttp://i.imgur.com/8GXgmXe.png&quot; rel=&quot;nofollow&quot; target=&quot;_NEW&quot;&gt;\nhttp://i.imgur.com/8GXgmXe.png&lt;/a&gt;\n\n\n &lt;a href=&quot;\nhttp://i.imgur.com/0yLKIEZ.png&quot; rel=&quot;nofollow&quot; target=&quot;_NEW&quot;&gt;\nhttp://i.imgur.com/0yLKIEZ.png&lt;/a&gt;\n\n\n &lt;a href=&quot;\nhttp://i.imgur.com/aGlxWb9.png&quot; rel=&quot;nofollow&quot; target=&quot;_NEW&quot;&gt;\nhttp://i.imgur.com/aGlxWb9.png&lt;/a&gt;\n\n\n &lt;a href=&quot;\nhttp://i.imgur.com/U1wXBpx.png&quot; rel=&quot;nofollow&quot; target=&quot;_NEW&quot;&gt;\nhttp://i.imgur.com/U1wXBpx.png&lt;/a&gt;\n\n\n &lt;a href=&quot;\nhttp://i.imgur.com/7hEqaZp.png&quot; rel=&quot;nofollow&quot; target=&quot;_NEW&quot;&gt;\nhttp://i.imgur.com/7hEqaZp.png&lt;/a&gt;\n\n\n\n\nIMDB:\n\n\n\n &lt;a href=&quot;\nhttp://www.imdb.com/title/tt2326612&quot; rel=&quot;nofollow&quot; target=&quot;_NEW&quot;&gt;\nhttp://www.imdb.com/title/tt2326612&lt;/a&gt;\n\n\n\n\nIMDB Rating:  5.3\n\n\n\n\nStoryline:\n\nEight years after the disappearance of Cassandra, some disturbing indications seem to indicate that she's still alive. Police, parents and Cassandra herself, will try to unravel the mystery of her disappearance.\n\n\n\n\nGeneral\n\n\n\nFormat                                   : MPEG-4\nFormat profile                           : Base Media\nCodec ID                                 : isom\nFile size                                : 614 MiB\nDuration                                 : 1h 51mn\nOverall bit rate mode                    : Variable\nOverall bit rate                         : 770 Kbps\nMovie name                               : Captives\nDescription                              : A father tries to track down his kidnapped daughter.\nRecorded date                            : 2014-08-21\nCopyright                                : F**k the MPAA\nTitle/Sort                               : The Captive\n\n\n\n\n\nVideo\n\n\n\nFormat                                   : AVC\nFormat/Info                              : Advanced Video Codec\nFormat profile                           : &lt;a class=&quot;__cf_email__&quot; href=&quot;/cdn-cgi/l/email-protection&quot; data-cfemail=&quot;296448404769651d0719&quot;&gt;[email&amp;#160;protected]&lt;/a&gt;&lt;script cf-hash='f9e31' type=&quot;text/javascript&quot;&gt;\n/* &lt;![CDATA[ */!function(){try{var t=&quot;currentScript&quot;in document?document.currentScript:function(){for(var t=document.getElementsByTagName(&quot;script&quot;),e=t.length;e--;)if(t[e].getAttribute(&quot;cf-hash&quot;))return t[e]}();if(t&amp;&amp;t.previousSibling){var e,r,n,i,c=t.previousSibling,a=c.getAttribute(&quot;data-cfemail&quot;);if(a){for(e=&quot;&quot;,r=parseInt(a.substr(0,2),16),n=2;a.length-n;n+=2)i=parseInt(a.substr(n,2),16)^r,e+=String.fromCharCode(i);e=document.createTextNode(e),c.parentNode.replaceChild(e,c)}}}catch(u){}}();/* ]]&gt; */&lt;/script&gt;\nCodec ID/Info                            : Advanced Video Coding\nDuration                                 : 1h 51mn\nBit rate                                 : 573 Kbps\nMaximum bit rate                         : 3 593 Kbps\nWidth                                    : 720 pixels\nHeight                                   : 304 pixels\nDisplay aspect ratio                     : 2.35:1\nFrame rate mode                          : Constant\nFrame rate                               : 23.976 fps\nColor space                              : YUV\nChroma subsampling                       : 4:2:0\nBit depth                                : 8 bits\nScan type                                : Progressive\nBits/(Pixel*Frame)                       : 0.109\nStream size                              : 457 MiB (74%)\nWriting library                          : x264 \nLanguage                                 : English\n\n\n\n\nAudio\n\n\nFormat                                   : AAC\nFormat/Info                              : Advanced Audio Codec\nDuration                                 : 1h 51mn\nBit rate mode                            : Variable\nBit rate                                 : 192 Kbps\nMaximum bit rate                         : 269 Kbps\nOriginal Channel count                   : 6 channels\nChannel positions                        : Front: L C R, Side: L R, LFE\nSampling rate                            : 48.0 KHz\nCompression mode                         : Lossy\nStream size                              : 154 MiB (25%)\nLanguage                                 : English\n\n\n\n\nPLEASE COMMENT ON QUALITY AND SEED FOR AS LONG AS POSSIBLE TO KEEP THE TORRENT ALIVE :-","torrent":{"xt":"urn:btih:8675e5ffc40361b97b562bdba6f8d868c81bf143","amp;dn":"The.Captive.2014.DVDRIP.H264.AAC.5.1ch.MP4.Raven","amp;tr":["udp%3A%2F%2Ftracker.openbittorrent.com%3A80","udp%3A%2F%2Fopen.demonii.com%3A1337","udp%3A%2F%2Ftracker.coppersurfer.tk%3A6969","udp%3A%2F%2Fexodus.desync.com%3A6969"],"infoHash":"8675e5ffc40361b97b562bdba6f8d868c81bf143","infoHashBuffer":{"type":"Buffer","data":[134,117,229,255,196,3,97,185,123,86,43,219,166,248,216,104,200,27,241,67]},"announce":[],"urlList":[]}}